#!OML:ASF E:\motion texture\Top Level 1\Subject 1\Session 1\male.ASF
:FULLY-SPECIFIED
:DEGREES
732
root -50.7576 17.9857 3.43832 533.556 -82.1639 -526.727
lowerback 0.600428 -1.74435 3.46502
upperback 1.0727 -2.52696 5.6174
thorax 0.877659 -1.33449 3.83983
lowerneck -16.6418 2.21252 -0.623135
upperneck 19.8253 4.06169 -4.51158
head 9.06569 1.27101 -0.938831
rclavicle -4.1546e-014 1.11319e-013
rhumerus -83.9268 -45.1514 4.21524
rradius 25.2647
rwrist 2.19117
rhand -21.2675 -55.6178
rfingers 7.12502
rthumb 5.11607 -85.536
lclavicle -4.1546e-014 1.11319e-013
lhumerus 23.4737 -65.7238 66.746
lradius 74.1427
lwrist -18.7396
lhand 10.9298 17.0037
lfingers 7.12502
lthumb 36.0077 43.3183
rfemur -31.6801 -0.202494 16.745
rtibia 49.7619
rfoot -6.68149 -9.18922
rtoes 0.48517
lfemur -21.2302 -2.15632 -16.1547
ltibia 27.603
lfoot -3.54211 4.71542
ltoes 2.26661
733
root -50.8343 17.9858 3.40725 530.983 -82.7338 -524.194
lowerback 0.178434 -1.6896 3.83541
upperback 1.2908 -2.50917 5.67449
thorax 1.32695 -1.32269 3.67293
lowerneck -16.6418 2.21252 -0.623135
upperneck 19.8253 4.06169 -4.51158
head 9.06569 1.27101 -0.938831
rclavicle -6.99722e-014 8.90555e-014
rhumerus -84.1591 -45.6165 3.69797
rradius 24.9034
rwrist 2.26364
rhand -21.0097 -55.9863
rfingers 7.12502
rthumb 5.365 -85.8984
lclavicle -6.99722e-014 8.90555e-014
lhumerus 23.4737 -65.7238 66.746
lradius 74.1427
lwrist -18.7396
lhand 10.9298 17.0037
lfingers 7.12502
lthumb 36.0077 43.3183
rfemur -31.6801 -0.202494 16.745
rtibia 49.7619
rfoot -6.68149 -9.18922
rtoes 0.48517
lfemur -21.2302 -2.15632 -16.1547
ltibia 27.603
lfoot -3.54211 4.71542
ltoes 2.26661
734
root -50.8857 17.9876 3.36932 528.578 -83.1764 -521.774
lowerback 0.8355 -1.65315 4.00548
upperback 0.872002 -2.3825 5.79271
thorax 0.519793 -1.26512 3.73252
lowerneck -16.6418 2.21252 -0.623135
upperneck 19.8253 4.06169 -4.51158
head 9.06569 1.27101 -0.938831
rclavicle -2.14687e-014 3.65764e-014
rhumerus -85.8769 -46.0538 5.70907
rradius 24.1571
rwrist 4.64055
rhand -20.731 -55.6866
rfingers 7.12502
rthumb 5.63407 -85.5917
lclavicle -2.14687e-014 3.65764e-014
lhumerus 23.4737 -65.7238 66.746
lradius 74.1427
lwrist -18.7396
lhand 10.9298 17.0037
lfingers 7.12502
lthumb 36.0077 43.3183
rfemur -31.6801 -0.202494 16.745
rtibia 49.7619
rfoot -6.68149 -9.18922
rtoes 0.48517
lfemur -21.2302 -2.15632 -16.1547
ltibia 27.603
lfoot -3.54211 4.71542
ltoes 2.26661
735
root -50.9434 17.9894 3.33388 525.771 -83.683 -519.007
lowerback 0.354474 -1.56825 4.30551
upperback 1.28129 -2.34329 5.78099
thorax 1.19946 -1.23934 3.52865
lowerneck -16.6418 2.21252 -0.623135
upperneck 19.8253 4.06169 -4.51158
head 9.06569 1.27101 -0.938831
rclavicle -1.98785e-015 5.08889e-014
rhumerus -85.3909 -46.8688 3.98462
rradius 23.9014
rwrist 4.79469
rhand -20.3784 -55.8363
rfingers 7.12502
rthumb 5.97449 -85.732
lclavicle -1.98785e-015 5.08889e-014
lhumerus 23.4737 -65.7238 66.746
lradius 74.1427
lwrist -18.7396
lhand 10.9298 17.0037
lfingers 7.12502
lthumb 36.0077 43.3183
rfemur -31.6801 -0.202494 16.745
rtibia 49.7619
rfoot -6.68149 -9.18922
rtoes 0.48517
lfemur -21.2302 -2.15632 -16.1547
ltibia 27.603
lfoot -3.54211 4.71542
ltoes 2.26661
736
root -51.0001 17.9918 3.29806 520.624 -83.9987 -513.853
lowerback 0.64309 -1.46458 4.59291
upperback 1.06374 -2.18263 6.08552
thorax 0.810879 -1.16884 3.69961
lowerneck -16.6418 2.21252 -0.623135
upperneck 19.8253 4.06169 -4.51158
head 9.06569 1.27101 -0.938831
rclavicle -1.39149e-014 -6.83819e-014
rhumerus -84.508 -46.9761 2.38928
rradius 23.7033
rwrist 4.74441
rhand -21.0633 -56.0185
rfingers 7.12502
rthumb 5.3132 -85.9319
lclavicle -1.39149e-014 -6.83819e-014
lhumerus 23.4737 -65.7238 66.746
lradius 74.1427
lwrist -18.7396
lhand 10.9298 17.0037
lfingers 7.12502
lthumb 36.0077 43.3183
rfemur -31.6801 -0.202494 16.745
rtibia 49.7619
rfoot -6.68149 -9.18922
rtoes 0.48517
lfemur -21.2302 -2.15632 -16.1547
ltibia 27.603
lfoot -3.54211 4.71542
ltoes 2.26661
737
root -51.0657 17.994 3.26889 516.066 -84.4815 -509.321
lowerback 0.64309 -1.46458 4.59291
upperback 1.06374 -2.18263 6.08552
thorax 0.810879 -1.16884 3.69961
lowerneck -16.6418 2.21252 -0.623135
upperneck 19.8253 4.06169 -4.51158
head 9.06569 1.27101 -0.938831
rclavicle -1.39149e-014 -6.83819e-014
rhumerus -84.508 -46.9761 2.38928
rradius 23.7033
rwrist 4.74441
rhand -21.0633 -56.0185
rfingers 7.12502
rthumb 5.3132 -85.9319
lclavicle -1.39149e-014 -6.83819e-014
lhumerus 23.4737 -65.7238 66.746
lradius 74.1427
lwrist -18.7396
lhand 10.9298 17.0037
lfingers 7.12502
lthumb 36.0077 43.3183
rfemur -31.6801 -0.202494 16.745
rtibia 49.7619
rfoot -6.68149 -9.18922
rtoes 0.48517
lfemur -21.2302 -2.15632 -16.1547
ltibia 27.603
lfoot -3.54211 4.71542
ltoes 2.26661
738
root -51.1153 17.9961 3.23493 511.714 -84.9121 -504.961
lowerback 0.64309 -1.46458 4.59291
upperback 1.06374 -2.18263 6.08552
thorax 0.810879 -1.16884 3.69961
lowerneck -16.6418 2.21252 -0.623135
upperneck 19.8253 4.06169 -4.51158
head 9.06569 1.27101 -0.938831
rclavicle -1.39149e-014 -6.83819e-014
rhumerus -84.508 -46.9761 2.38928
rradius 23.7033
rwrist 4.74441
rhand -21.0633 -56.0185
rfingers 7.12502
rthumb 5.3132 -85.9319
lclavicle -1.39149e-014 -6.83819e-014
lhumerus 23.4737 -65.7238 66.746
lradius 74.1427
lwrist -18.7396
lhand 10.9298 17.0037
lfingers 7.12502
lthumb 36.0077 43.3183
rfemur -31.6801 -0.202494 16.745
rtibia 49.7619
rfoot -6.68149 -9.18922
rtoes 0.48517
lfemur -21.2302 -2.15632 -16.1547
ltibia 27.603
lfoot -3.54211 4.71542
ltoes 2.26661
739
root -51.1744 17.9961 3.20048 505.408 -85.2249 -498.681
lowerback 0.64309 -1.46458 4.59291
upperback 1.06374 -2.18263 6.08552
thorax 0.810879 -1.16884 3.69961
lowerneck -16.6418 2.21252 -0.623135
upperneck 19.8253 4.06169 -4.51158
head 9.06569 1.27101 -0.938831
rclavicle -1.39149e-014 -6.83819e-014
rhumerus -84.508 -46.9761 2.38928
rradius 23.7033
rwrist 4.74441
rhand -21.0633 -56.0185
rfingers 7.12502
rthumb 5.3132 -85.9319
lclavicle -1.39149e-014 -6.83819e-014
lhumerus 23.4737 -65.7238 66.746
lradius 74.1427
lwrist -18.7396
lhand 10.9298 17.0037
lfingers 7.12502
lthumb 36.0077 43.3183
rfemur -31.6801 -0.202494 16.745
rtibia 49.7619
rfoot -6.68149 -9.18922
rtoes 0.48517
lfemur -21.2302 -2.15632 -16.1547
ltibia 27.603
lfoot -3.54211 4.71542
ltoes 2.26661
740
root -51.2367 18.0255 3.17612 492.75 -85.8251 -486.887
lowerback 0.64309 -1.46458 4.59291
upperback 1.06374 -2.18263 6.08552
thorax 0.810879 -1.16884 3.69961
lowerneck -16.6418 2.21252 -0.623135
upperneck 19.8253 4.06169 -4.51158
head 9.06569 1.27101 -0.938831
rclavicle -1.39149e-014 -6.83819e-014
rhumerus -84.508 -46.9761 2.38928
rradius 23.7033
rwrist 4.74441
rhand -21.0633 -56.0185
rfingers 7.12502
rthumb 5.3132 -85.9319
lclavicle -1.39149e-014 -6.83819e-014
lhumerus 23.4737 -65.7238 66.746
lradius 74.1427
lwrist -18.7396
lhand 10.9298 17.0037
lfingers 7.12502
lthumb 36.0077 43.3183
rfemur -31.6801 -0.202494 16.745
rtibia 49.7619
rfoot -6.68149 -9.18922
rtoes 0.48517
lfemur -21.2302 -2.15632 -16.1547
ltibia 27.603
lfoot -3.54211 4.71542
ltoes 2.26661
741
root -51.2917 18.0219 3.14069 485.016 -85.9911 -479.096
lowerback 0.64309 -1.46458 4.59291
upperback 1.06374 -2.18263 6.08552
thorax 0.810879 -1.16884 3.69961
lowerneck -16.6418 2.21252 -0.623135
upperneck 19.8253 4.06169 -4.51158
head 9.06569 1.27101 -0.938831
rclavicle -1.39149e-014 -6.83819e-014
rhumerus -84.508 -46.9761 2.38928
rradius 23.7033
rwrist 4.74441
rhand -21.0633 -56.0185
rfingers 7.12502
rthumb 5.3132 -85.9319
lclavicle -1.39149e-014 -6.83819e-014
lhumerus 23.4737 -65.7238 66.746
lradius 74.1427
lwrist -18.7396
lhand 10.9298 17.0037
lfingers 7.12502
lthumb 36.0077 43.3183
rfemur -31.6801 -0.202494 16.745
rtibia 49.7619
rfoot -6.68149 -9.18922
rtoes 0.48517
lfemur -21.2302 -2.15632 -16.1547
ltibia 27.603
lfoot -3.54211 4.71542
ltoes 2.26661
742
root -51.3314 18.0191 3.10875 472.006 -86.1439 -465.997
lowerback 0.64309 -1.46458 4.59291
upperback 1.06374 -2.18263 6.08552
thorax 0.810879 -1.16884 3.69961
lowerneck -16.6418 2.21252 -0.623135
upperneck 19.8253 4.06169 -4.51158
head 9.06569 1.27101 -0.938831
rclavicle -1.39149e-014 -6.83819e-014
rhumerus -84.508 -46.9761 2.38928
rradius 23.7033
rwrist 4.74441
rhand -21.0633 -56.0185
rfingers 7.12502
rthumb 5.3132 -85.9319
lclavicle -1.39149e-014 -6.83819e-014
lhumerus 23.4737 -65.7238 66.746
lradius 74.1427
lwrist -18.7396
lhand 10.9298 17.0037
lfingers 7.12502
lthumb 36.0077 43.3183
rfemur -31.6801 -0.202494 16.745
rtibia 49.7619
rfoot -6.68149 -9.18922
rtoes 0.48517
lfemur -21.2302 -2.15632 -16.1547
ltibia 27.603
lfoot -3.54211 4.71542
ltoes 2.26661
